<svg version="1.1"
  xmlns="http://www.w3.org/2000/svg" viewBox="0 0 75 81" width="225" height="243">
  <!-- svg-source:excalidraw -->
  <g transform="translate(30 25) rotate(0 7.5 21)" stroke="none">
    <path d="M2.23 1.85 C1.71 2.3, -2.1 1.54, -4.98 3.61 C-7.86 5.67, -12.89 11.83, -15.04 14.25 C-17.2 16.68, -16.98 16.69, -17.92 18.16 C-18.87 19.64, -20.16 21.28, -20.71 23.09 C-21.25 24.9, -21.46 27.15, -21.19 29.03 C-20.92 30.92, -21.35 32.32, -19.1 34.42 C-16.86 36.52, -10.89 39.51, -7.72 41.65 C-4.55 43.79, -4.78 46.39, -0.1 47.28 C4.58 48.17, 15.75 48.28, 20.34 47 C24.92 45.71, 25.2 42.03, 27.43 39.57 C29.66 37.12, 32.6 34.23, 33.73 32.24 C34.85 30.26, 34.2 29.22, 34.2 27.67 C34.19 26.11, 34.12 25.67, 33.67 22.91 C33.22 20.15, 32.91 14.82, 31.48 11.09 C30.05 7.37, 28.56 2.81, 25.07 0.59 C21.59 -1.64, 14.58 -1.23, 10.56 -2.25 C6.54 -3.28, 2.99 -5.75, 0.93 -5.57 C-1.13 -5.4, -1.4 -2.37, -1.81 -1.2" stroke="none" stroke-width="0" fill="#ffc9c9" fill-rule="evenodd"></path>
    <path fill="#1e1e1e" d="M 0.76,1.53 Q 0.76,1.53 -0.16,2.53 -1.10,3.54 -2.44,4.73 -3.79,5.93 -4.97,7.10 -6.16,8.28 -6.97,9.07 -7.78,9.87 -8.96,11.07 -10.15,12.28 -10.80,13.20 -11.46,14.13 -12.01,15.06 -12.56,15.98 -13.42,17.32 -14.28,18.66 -15.11,20.47 -15.95,22.29 -16.25,23.71 -16.55,25.13 -16.70,26.52 -16.85,27.90 -16.35,29.20 -15.85,30.50 -14.85,32.14 -13.85,33.77 -13.03,34.69 -12.20,35.60 -11.12,36.44 -10.04,37.28 -8.58,38.63 -7.12,39.98 -5.92,40.62 -4.72,41.27 -3.39,41.84 -2.06,42.41 -0.87,42.59 0.30,42.77 1.92,42.87 3.54,42.96 6.39,43.03 9.24,43.10 10.97,42.83 12.71,42.57 14.17,42.44 15.63,42.32 16.67,41.80 17.71,41.28 18.87,40.75 20.03,40.21 21.77,39.57 23.52,38.93 24.90,37.66 26.29,36.39 27.78,34.34 29.27,32.28 29.90,31.24 30.53,30.19 31.02,29.02 31.52,27.86 31.76,26.46 32.01,25.07 32.07,23.93 32.12,22.79 31.54,21.18 30.96,19.57 30.09,17.63 29.22,15.69 28.03,14.27 26.83,12.84 26.17,11.79 25.50,10.74 24.46,9.19 23.43,7.64 22.94,6.67 22.46,5.70 21.33,4.88 20.21,4.06 19.08,3.43 17.95,2.79 16.61,2.02 15.27,1.25 14.41,0.61 13.55,-0.03 12.43,-0.64 11.30,-1.25 9.99,-1.33 8.67,-1.41 7.20,-1.41 5.73,-1.42 4.65,-1.63 3.57,-1.85 2.37,-0.63 1.17,0.57 1.05,0.75 0.93,0.92 0.76,1.04 0.58,1.17 0.38,1.23 0.18,1.30 -0.02,1.29 -0.24,1.29 -0.44,1.21 -0.64,1.14 -0.80,1.01 -0.97,0.88 -1.08,0.70 -1.20,0.52 -1.25,0.31 -1.30,0.11 -1.29,-0.09 -1.27,-0.31 -1.19,-0.50 -1.10,-0.70 -0.96,-0.86 -0.82,-1.01 -0.64,-1.12 -0.45,-1.23 -0.25,-1.27 -0.04,-1.31 0.16,-1.28 0.37,-1.25 0.57,-1.16 0.76,-1.07 0.91,-0.92 1.06,-0.77 1.15,-0.58 1.25,-0.39 1.28,-0.18 1.31,0.02 1.27,0.23 1.23,0.44 1.13,0.63 1.02,0.81 0.86,0.96 0.71,1.10 0.51,1.18 0.32,1.27 0.11,1.29 -0.10,1.30 -0.30,1.25 -0.51,1.20 -0.69,1.09 -0.87,0.98 -1.00,0.81 -1.14,0.65 -1.21,0.45 -1.28,0.25 -1.29,0.04 -1.30,-0.17 -1.24,-0.37 -1.17,-0.57 -1.17,-0.57 -1.17,-0.57 0.36,-3.36 1.90,-6.14 3.82,-6.35 5.74,-6.57 7.27,-6.56 8.80,-6.55 9.95,-6.50 11.10,-6.46 12.70,-6.02 14.31,-5.59 15.49,-4.93 16.68,-4.28 18.22,-3.23 19.76,-2.18 21.18,-1.41 22.60,-0.64 24.03,0.48 25.47,1.61 26.77,3.24 28.07,4.88 29.09,6.36 30.12,7.84 31.22,9.32 32.32,10.79 33.26,12.03 34.20,13.28 34.71,14.31 35.22,15.35 35.73,16.43 36.23,17.52 36.69,18.73 37.16,19.94 37.48,21.43 37.81,22.91 37.74,24.31 37.67,25.70 37.52,26.87 37.37,28.04 37.06,29.08 36.76,30.11 36.09,31.63 35.42,33.15 34.67,34.38 33.92,35.61 32.93,37.00 31.94,38.39 30.45,39.82 28.96,41.25 28.32,42.10 27.67,42.96 26.72,43.58 25.77,44.20 24.10,44.81 22.43,45.42 21.20,45.98 19.97,46.55 18.09,47.29 16.21,48.02 14.86,48.13 13.52,48.25 11.35,48.54 9.19,48.83 7.25,48.81 5.31,48.78 4.24,48.73 3.17,48.68 1.22,48.55 -0.71,48.41 -2.51,48.05 -4.31,47.68 -5.94,46.97 -7.57,46.25 -9.28,45.23 -10.99,44.21 -12.31,42.98 -13.63,41.75 -15.04,40.60 -16.45,39.44 -17.42,38.35 -18.40,37.27 -19.34,36.00 -20.27,34.73 -20.77,33.65 -21.26,32.58 -21.70,31.40 -22.15,30.21 -22.39,28.80 -22.64,27.39 -22.45,25.60 -22.26,23.81 -21.78,21.81 -21.29,19.82 -20.25,17.65 -19.22,15.48 -18.40,14.21 -17.57,12.94 -16.87,11.80 -16.16,10.65 -15.21,9.40 -14.26,8.16 -13.03,6.96 -11.80,5.76 -10.97,4.96 -10.14,4.16 -8.83,2.93 -7.53,1.70 -6.47,0.81 -5.42,-0.07 -4.46,-0.65 -3.49,-1.24 -2.13,-1.38 -0.76,-1.53 -0.57,-1.60 -0.37,-1.66 -0.17,-1.69 0.03,-1.71 0.23,-1.68 0.44,-1.65 0.63,-1.57 0.82,-1.49 0.99,-1.37 1.15,-1.25 1.29,-1.10 1.42,-0.94 1.51,-0.75 1.61,-0.57 1.65,-0.37 1.70,-0.17 1.69,0.03 1.69,0.23 1.64,0.43 1.58,0.63 1.48,0.81 1.38,0.99 1.24,1.15 1.10,1.30 0.93,1.41 0.76,1.53 0.76,1.53 L 0.76,1.53 Z"></path>
  </g>
  <g transform="translate(30 38) rotate(0 0.5 -1)" stroke="none">
    <path d="M-0.35 -0.89 C-0.21 -1.27, 1.36 -1.17, 1.24 -1.25 C1.12 -1.33, -0.65 -1.53, -1.04 -1.36" stroke="none" stroke-width="0" fill="#ffc9c9" fill-rule="evenodd"></path>
    <path fill="#1e1e1e" d="M 1.84,-0.57 Q 1.84,-0.57 1.87,-0.11 1.90,0.34 1.71,0.77 1.52,1.19 1.16,1.48 0.79,1.76 0.33,1.85 -0.11,1.93 -0.55,1.79 -1.00,1.65 -1.33,1.33 -1.65,1.00 -1.79,0.55 -1.93,0.11 -1.85,-0.33 -1.76,-0.79 -1.48,-1.16 -1.19,-1.52 -0.77,-1.71 -0.34,-1.90 0.11,-1.87 0.57,-1.84 0.97,-1.60 1.37,-1.36 1.61,-0.97 L 1.84,-0.57 Z"></path>
  </g>
  <g transform="translate(44 39) rotate(0 -0.5 0.5)" stroke="none">
    <path d="M-0.34 1.05 C-0.72 1.53, -1.07 1.96, -0.99 1.84 C-0.9 1.72, 0.02 0.66, 0.18 0.3" stroke="none" stroke-width="0" fill="#ffc9c9" fill-rule="evenodd"></path>
    <path fill="#1e1e1e" d="M 1.72,-0.53 Q 1.72,-0.53 1.75,-0.10 1.77,0.32 1.59,0.71 1.42,1.11 1.08,1.38 0.74,1.64 0.31,1.72 -0.10,1.80 -0.52,1.67 -0.93,1.54 -1.23,1.23 -1.54,0.93 -1.67,0.52 -1.80,0.10 -1.72,-0.31 -1.64,-0.74 -1.38,-1.08 -1.11,-1.42 -0.71,-1.59 -0.32,-1.77 0.10,-1.75 0.53,-1.72 0.90,-1.50 1.27,-1.27 1.50,-0.90 L 1.72,-0.53 Z"></path>
  </g>
  <g transform="translate(53 13) rotate(0 5.5 4)" stroke="none">
    <path d="M0.04 0.31 C0.1 1.79, -0.8 5.42, 0.28 7.29 C1.35 9.16, 4.68 11.48, 6.49 11.56 C8.3 11.63, 10.24 9.61, 11.13 7.75 C12.02 5.89, 12.6 2.26, 11.83 0.37 C11.06 -1.51, 7.83 -3.15, 6.52 -3.58 C5.2 -4.02, 3.94 -2.59, 3.93 -2.23 C3.93 -1.86, 6.89 -1.26, 6.5 -1.41 C6.11 -1.55, 2.78 -3.41, 1.58 -3.12 C0.37 -2.83, -0.2 -0.14, -0.73 0.33" stroke="none" stroke-width="0" fill="#ffc9c9" fill-rule="evenodd"></path>
    <path fill="#1e1e1e" d="M 1.50,0 Q 1.50,0 1.95,1.15 2.41,2.3 2.41,3.69 2.41,5.08 3.54,6.29 4.68,7.50 5.65,7.98 6.63,8.47 7.81,7.35 8.99,6.23 8.69,4.96 8.39,3.70 8.62,2.64 8.85,1.57 7.89,1.10 6.93,0.63 5.89,0.39 4.86,0.15 3.72,-0.15 2.58,-0.47 1.94,-0.18 1.30,0.10 1.25,0.31 1.20,0.52 1.09,0.69 0.97,0.87 0.81,1.01 0.64,1.14 0.44,1.21 0.24,1.29 0.03,1.29 -0.17,1.30 -0.38,1.23 -0.58,1.17 -0.75,1.05 -0.92,0.92 -1.05,0.75 -1.17,0.58 -1.23,0.37 -1.30,0.17 -1.29,-0.03 -1.28,-0.24 -1.21,-0.44 -1.14,-0.64 -1.00,-0.81 -0.87,-0.97 -0.69,-1.09 -0.51,-1.20 -0.31,-1.25 -0.10,-1.30 0.10,-1.29 0.31,-1.27 0.51,-1.18 0.70,-1.10 0.86,-0.96 1.02,-0.82 1.12,-0.63 1.23,-0.45 1.27,-0.24 1.31,-0.03 1.28,0.17 1.25,0.38 1.16,0.57 1.06,0.76 0.91,0.91 0.76,1.06 0.57,1.16 0.38,1.25 0.17,1.28 -0.03,1.31 -0.24,1.27 -0.45,1.23 -0.63,1.12 -0.82,1.02 -0.96,0.86 -1.10,0.70 -1.19,0.51 -1.27,0.31 -1.29,0.10 -1.30,-0.10 -1.30,-0.10 -1.30,-0.10 -0.66,-2.51 -0.02,-4.91 1.40,-5.18 2.82,-5.46 4.08,-5.32 5.34,-5.17 6.90,-4.68 8.46,-4.18 9.53,-3.63 10.61,-3.07 11.88,-1.58 13.14,-0.09 13.35,1.32 13.55,2.74 13.56,4.30 13.57,5.85 13.38,7.20 13.18,8.55 12.08,9.99 10.98,11.42 9.50,12.21 8.02,13.00 5.95,12.74 3.89,12.48 2.89,11.96 1.88,11.44 0.85,10.84 -0.18,10.24 -1.12,9.11 -2.06,7.97 -2.23,6.53 -2.41,5.08 -2.41,3.69 -2.41,2.3 -1.95,1.15 -1.50,0 -1.48,-0.17 -1.45,-0.35 -1.39,-0.52 -1.33,-0.69 -1.22,-0.84 -1.12,-0.99 -0.98,-1.11 -0.85,-1.23 -0.69,-1.32 -0.53,-1.40 -0.35,-1.44 -0.18,-1.49 0.00,-1.49 0.18,-1.49 0.35,-1.44 0.53,-1.40 0.69,-1.32 0.85,-1.23 0.98,-1.11 1.12,-0.99 1.22,-0.84 1.33,-0.69 1.39,-0.52 1.45,-0.35 1.48,-0.17 1.50,0.00 1.50,0.00 L 1.50,0 Z"></path>
  </g>
  <g transform="translate(24 46) rotate(0 16 5)" stroke="none">
    <path fill="#1e1e1e" d="M 1.60,0 Q 1.60,0 2.06,1.43 2.52,2.87 2.50,4.38 2.49,5.88 3.64,6.66 4.79,7.43 5.74,7.92 6.69,8.41 8.00,8.43 9.31,8.45 10.47,8.05 11.63,7.66 12.76,6.09 13.90,4.52 15.09,2.97 16.28,1.41 17.42,1.60 18.57,1.79 19.46,2.79 20.34,3.79 20.90,4.72 21.47,5.65 22.09,6.91 22.71,8.16 24.12,8.30 25.53,8.44 26.53,7.57 27.53,6.69 28.41,5.03 29.29,3.36 29.98,1.17 30.68,-1.01 30.72,-1.22 30.75,-1.43 30.86,-1.61 30.96,-1.80 31.11,-1.95 31.27,-2.09 31.46,-2.18 31.66,-2.26 31.87,-2.28 32.08,-2.31 32.29,-2.26 32.49,-2.21 32.67,-2.10 32.86,-1.99 32.99,-1.82 33.13,-1.66 33.20,-1.46 33.28,-1.26 33.29,-1.05 33.30,-0.84 33.24,-0.63 33.18,-0.43 33.06,-0.26 32.94,-0.08 32.77,0.04 32.60,0.16 32.40,0.23 32.19,0.29 31.98,0.29 31.77,0.29 31.57,0.22 31.37,0.15 31.20,0.02 31.03,-0.10 30.91,-0.28 30.80,-0.46 30.74,-0.66 30.69,-0.87 30.70,-1.08 30.72,-1.29 30.80,-1.49 30.88,-1.68 31.02,-1.84 31.16,-2.01 31.34,-2.11 31.52,-2.22 31.73,-2.26 31.94,-2.31 32.15,-2.28 32.36,-2.26 32.55,-2.17 32.74,-2.07 32.90,-1.93 33.05,-1.78 33.15,-1.59 33.24,-1.40 33.28,-1.19 33.31,-0.98 33.31,-0.98 33.31,-0.98 33.88,1.05 34.46,3.09 34.02,4.67 33.57,6.25 32.97,7.41 32.37,8.57 31.60,9.60 30.83,10.63 29.20,11.68 27.57,12.74 25.29,12.54 23.01,12.35 21.72,12.16 20.44,11.96 19.67,11.20 18.90,10.43 18.06,9.26 17.22,8.09 16.39,6.84 15.55,5.60 16.80,6.04 18.05,6.48 17.20,7.98 16.34,9.47 14.94,11.05 13.53,12.62 12.47,13.06 11.42,13.49 9.77,13.49 8.12,13.48 6.82,13.34 5.53,13.19 4.49,12.66 3.45,12.13 2.32,11.52 1.20,10.91 -0.22,9.60 -1.66,8.28 -2.07,7.21 -2.49,6.13 -2.50,4.50 -2.52,2.87 -2.06,1.43 -1.60,0 -1.58,-0.19 -1.56,-0.38 -1.49,-0.56 -1.42,-0.74 -1.31,-0.90 -1.20,-1.06 -1.05,-1.19 -0.91,-1.32 -0.74,-1.41 -0.56,-1.50 -0.38,-1.54 -0.19,-1.59 0.00,-1.59 0.19,-1.59 0.38,-1.54 0.56,-1.50 0.74,-1.41 0.91,-1.32 1.05,-1.19 1.20,-1.06 1.31,-0.90 1.42,-0.74 1.49,-0.56 1.56,-0.38 1.58,-0.19 1.60,0.00 1.60,0.00 L 1.60,0 Z"></path>
  </g>
</svg>
